# xmcd CD database file
#
# Track frame offsets:
#	187
#	20364
#	40239
#
# Disc length: 803 seconds
#
# Revision: 1
# Processed by: cddbd v1.5.2PL0 Copyright (c) Steve Scherf et al.
# Submitted via: CDex 1.70beta2
#
DISCID=1a032103
DTITLE=CASCADE - YELLEOW YELLOW FIRE
DYEAR=1997
DGENRE=Alternative
TTITLE0=YELLEOW YELLOW FIRE
TTITLE1=奇跡の日曜日
TTITLE2=YELLEOW YELLOW FIRE  backing track
EXTD=YEAR: 1997
EXTT0=
EXTT1=
EXTT2=
PLAYORDER=
